<svg xmlns="http://www.w3.org/2000/svg" height="200" width="143.58" viewport="0 0 20 14.358">
	<style type="text/css" >
		<![CDATA[
			.gold {
				fill: #f5d54e;
			}
			.background-color {
				fill: #ecdfbf;
				filter: url(#noise);
			}			
			.background-feature {
				fill: transparent;
				stroke: #cfac58;
				stroke-width: 0.07;
				opacity: 0.6;
			}		
			.top-feature {
				fill: transparent;
				stroke: #000000;
				stroke-width: 0.03;
				opacity: 0.1;
			}
			.primary-color {
				fill: #0e3d95;
			}
			.secondary-color {
				fill: #125faf;
			}
		]]>
	</style>
	<filter id="noise" x="0%" y="0%" width="100%" height="100%">
        <feTurbulence baseFrequency="0.16" numOctaves="16" result="noisy" seed="2" />
        <feTurbulence baseFrequency="8" numOctaves="16" type="fractalNoise" result="noisy2" seed="157" />
		<feColorMatrix type="luminanceToAlpha" in="noisy" result="alphaNoise1" />
		<feColorMatrix type="luminanceToAlpha" in="noisy2" result="alphaNoise2" />
		<feFlood x="0" y="0" width="100%" height="100%" flood-color="#d5b057" flood-opacity="1" result="flood" />
		<feComposite operator="out" in="alphaNoise1" in2="alphaNoise2" result="alphaNoise"/>
		<feComposite operator="in" in="flood" in2="alphaNoise" result="coloredNoise"/>
		<feComposite operator="in" in="coloredNoise" in2="SourceGraphic" result="finalNoise"/>
        <feBlend in="SourceGraphic" in2="finalNoise" mode="multiply" />
    </filter>
	<defs>
		<clipPath id="illustration-clip">
			<path d="M 0.425 2.321 H 13.902 L 14.4 2.481 V 0 H 0 V 2.496 Z" />
		</clipPath>
		<clipPath id="top-clip">
			<path d="M 1.026 0.84 H 13.37 c 0.206 0.329 0.186 0.876 -0.026 1.198 H 1 c -0.213 -0.417 -0.151 -0.965 0.02 -1.177 Z" />
		</clipPath>
	</defs>
	<g transform="scale(10)" stroke="black" stroke-width="0.06">
		<g clip-path="url(#illustration-clip)">
			<rect class="background-color" x="0" y="0" width="100%" height="100%" stroke-width="0" />
			<circle	class="background-feature" cx="8.5" cy="1.2" r="5"/>
			<circle	class="background-feature" cx="8.5" cy="4" r="5"/>
			<circle	class="background-feature" cx="10" cy="2" r="1.8" stroke-width="0.04" opacity="0.5" />
			<circle	class="background-feature" cx="12" cy="2" r="2" stroke-width="0.04" opacity="0.5" />
		
			<circle class="gold" cx="1.345" cy="1.432" r="1.24"/>
			<circle class="gold" cx="13.013" cy="1.432" r="1.24"/>
			
			<circle class="gold" cx="2.6" cy="0.588" r="0.1"/>
			<circle class="gold" cx="3" cy="0.588" r="0.1"/>
			<circle class="gold" cx="3.4" cy="0.588" r="0.1"/>
			
			<circle class="gold" cx="10.95" cy="0.588" r="0.1"/>
			<circle class="gold" cx="11.35" cy="0.588" r="0.1"/>
			<circle class="gold" cx="11.75" cy="0.588" r="0.1"/>
			
			<path class="primary-color" d="M -0.017 0.403 C 0.079 0.355 0.166 0.292 0.302 0.24 C 0.445 0.156 0.536 0.085 0.624 -0.047 H 1.053 C 0.918 0.164 0.823 0.244 0.576 0.351 C 0.369 0.459 0.13 0.566 -0.005 0.733 Z M 13.319 -0.028 C 13.44 0.161 13.605 0.282 13.831 0.384 C 14.03 0.444 14.199 0.579 14.375 0.715 V 0.379 C 14.2593 0.3293 14.154 0.278 14.028 0.222 C 13.889 0.142 13.81 0.096 13.733 -0.02 Z" />
			<path class="primary-color" d="M 0.853 0.521 H 1.657 C 1.905 0.55 2.017 0.612 2.178 0.81 H 12.167 C 12.303 0.676 12.422 0.597 12.673 0.517 H 13.496 C 13.674 0.748 13.749 0.996 13.786 1.232 L 14.073 1.468 L 13.749 1.728 C 13.715 1.997 13.699 2.089 13.576 2.307 H 0.797 C 0.701 2.123 0.653 1.96 0.616 1.765 L 0.292 1.452 L 0.625 1.184 C 0.69 0.875 0.714 0.728 0.845 0.525 Z" />
			
			<g id="top-ring">
				<path class="secondary-color" d="M 7.2 -1.8 A 1 1 0 0 0 7.2 4.4 A 1 1 0 0 0 7.2 -1.8 V -1.4 A 1 1 0 0 1 7.2 4 A 1 1 0 0 1 7.2 -1.4 Z" />
				<path class="primary-color" d="M 7.2 -1.6 A 1 1 0 0 0 7.2 4.1 A 1 1 0 0 0 7.2 -1.6 V -1.46 A 1 1 0 0 1 7.2 4.05 A 1 1 0 0 1 7.2 -1.46 Z" stroke-width="0" />
			</g>

			<path class="secondary-color" d="M 5.266 2.07 L 5.421 2.305 H 9.004 L 9.207 2.07 Z" />
		</g>

		<path class="primary-color" d="M -0.046 10.999 H 14.455 V 11.93 L 13.408 13.145 V 12.462 H 1.009 V 13.058 L -0.045 11.793 Z" />
		<path class="secondary-color" d="M 1.8 10.999 H 13.364 V 11.445 H 2.639 Z" />
		<path class="primary-color" d="M 13.873 11.24 C 13.939 11.28 13.973 11.318 13.964 11.381 C 13.962 11.472 13.953 11.481 13.914 11.526 C 13.867 11.575 13.86 11.587 13.815 11.602 C 13.7627 11.602 13.7103 11.602 13.649 11.569 C 13.6113 11.5437 13.5647 11.4853 13.534 11.413 C 13.5167 11.346 13.5153 11.265 13.525 11.203 C 13.546 11.1257 13.578 11.0673 13.61 11.009 C 13.69 10.921 13.789 10.861 13.925 10.822 C 14.052 10.81 14.124 10.806 14.239 10.865 C 14.351 10.913 14.378 10.929 14.45 10.993 C 14.526 11.108 14.589 11.212 14.613 11.355 C 14.637 11.53 14.625 11.626 14.585 11.725 C 14.514 11.877 14.454 11.976 14.355 12.096 C 14.2117 12.3017 14.0683 12.5073 13.925 12.713 C 13.87 12.812 13.818 12.908 13.809 13.067 C 13.804 13.643 13.799 14.219 13.794 14.795 C 13.7887 15.3537 13.7833 15.9123 13.778 16.471 C 13.7847 16.9237 13.7913 17.3763 13.798 17.829 C 13.798 17.9247 13.798 18.0203 13.798 18.116 C 13.686 18.203 13.634 18.239 13.543 18.271 C 13.5323 17.067 13.5217 15.863 13.511 14.659 C 13.531 14.01 13.503 13.764 13.511 13.517 C 13.513 13.295 13.513 13.081 13.576 12.846 C 13.634 12.657 13.69 12.541 13.79 12.41 C 13.961 12.183 14.08 12.02 14.216 11.757 C 14.271 11.622 14.295 11.51 14.276 11.386 C 14.256 11.281 14.199 11.217 14.132 11.189 C 14.07 11.166 14.01 11.16 13.948 11.184 C 13.917 11.196 13.896 11.213 13.878 11.231 Z" />
		<path class="primary-color" d="M 0.527 12.847 C 0.544 12.9 0.564 12.969 0.563 13.113 C 0.567 13.616 0.571 14.119 0.575 14.622 C 0.58 15.142 0.567 15.668 0.571 16.196 C 0.567 16.6553 0.571 17.1197 0.575 17.584 C 0.575 17.7593 0.575 17.9347 0.575 18.11 C 0.639 18.198 0.716 18.231 0.813 18.256 V 12.627 L 0.765 12.574 Z" />
		
		<path class="gold" d="M 0.536 14.616 L 0.289 14.354 L 0.31 13.619 C 0.342 13.38 0.667 13.017 0.912 12.839 V 16.707 L 0.523 17.109 L 0.514 17.663 L 0.564 17.745 L 0.559 18.123 C 0.402 18.002 0.323 17.835 0.245 17.647 L 0.263 17.025 C 0.263 16.969 0.286 16.915 0.323 16.871 L 0.868 16.342 V 13.39 C 0.715 13.45 0.629 13.635 0.549 13.788 Z"/>
		<path transform="translate(14.36,0) scale(-1, 1)"  class="gold" d="M 0.536 14.616 L 0.289 14.354 L 0.31 13.619 C 0.342 13.38 0.667 13.017 0.912 12.839 V 16.707 L 0.523 17.109 L 0.514 17.663 L 0.564 17.745 L 0.559 18.123 C 0.402 18.002 0.323 17.835 0.245 17.647 L 0.263 17.025 C 0.263 16.969 0.286 16.915 0.323 16.871 L 0.868 16.342 V 13.39 C 0.715 13.45 0.629 13.635 0.549 13.788 Z"/>
		
		<path fill="black" stroke-width="0" d="M 0.854 18.258 H 13.53 C 13.956 18.121 14.175 17.744 14.413 16.781 V 20.059 H -0.026 V 16.809 C 0.165 17.405 0.388 18.22 0.855 18.26" />
		
		<path class="background-color" d="M 0.968 12.46 H 13.359 V 15.067 C 14.04 15.257 13.669 15.913 13.364 15.887 V 18.579 H 0.98 V 15.911 C 0.547 15.818 0.429 15.151 0.956 15.057 Z" />
		
		<path class="secondary-color" d="M 0.849 12.558 V 14.935 C 0.516 15.007 0.158 15.671 0.823 15.998 V 18.583 H 1.103 V 15.765 H 0.942 C 0.703 15.754 0.568 15.287 0.942 15.157 H 1.087 V 12.552 H 9.354 L 9.921 12.338 L 1.048 12.324 C 0.799 12.16 0.721 11.377 1.178 10.998 C 1.38 11.107 1.484 11.169 1.666 11.226 H 2.522 C 1.93 11.034 1.401 10.713 1.027 10.521 C 0.41 11.159 0.337 12.025 0.851 12.56 Z Z" />
		<path class="secondary-color" d="M 9.356 12.555 H 13.267 V 15.17 H 13.399 C 13.557 15.2 13.654 15.317 13.648 15.476 C 13.651 15.62 13.54 15.779 13.401 15.787 H 13.263 V 18.655 H 13.52 V 16.023 C 14.087 15.748 13.998 15.115 13.516 14.949 V 12.552 C 13.904 12.268 13.987 11.434 13.428 10.82 L 12.75 11.242 L 9.356 12.555 Z" />
		
		<path class="background-color" d="M 1 11.22 h 12.37 c 0.231 0.263 0.236 0.879 -0.027 1.126 h -12.313 c -0.231 -0.324 -0.248 -0.748 -0.033 -1.122 z" />
		<circle class="gold" cx="1" cy="15.476" r="0.14" stroke-width="0.04" />
		<circle class="gold" cx="13.356" cy="15.476" r="0.14" stroke-width="0.04" />
	
		<path class="primary-color" d="M 0.611 11.258 C 0.53 11.231 0.454 11.24 0.428 11.338 C 0.412 11.477 0.464 11.517 0.531 11.553 C 0.603 11.577 0.686 11.561 0.742 11.489 C 0.83 11.386 0.855 11.319 0.842 11.184 C 0.834 11.036 0.738 10.952 0.639 10.885 C 0.544 10.83 0.48 10.817 0.329 10.815 C 0.157 10.833 0.049 10.884 -0.036 10.952 C -0.19 11.118 -0.229 11.324 -0.232 11.538 C -0.211 11.672 -0.211 11.648 -0.158 11.804 C -0.084 11.965 0.209 12.357 0.332 12.52 L 0.512 12.812 L 0.743 12.552 C 0.593 12.396 0.396 12.151 0.158 11.775 C 0.094 11.634 0.09 11.498 0.109 11.339 C 0.137 11.252 0.205 11.155 0.316 11.147 C 0.38 11.14 0.429 11.141 0.489 11.152 C 0.519 11.162 0.551 11.184 0.583 11.213 Z" />
		
		<path class="gold" d="M 0.702 12.419 C 0.547 12.5 0.336 12.683 0.339 12.987 L 0.507 13.116 L 0.549 13.096 C 0.511 13.011 0.608 12.865 0.834 12.668 C 0.8373 12.6343 0.8407 12.6007 0.836 12.563 C 0.808 12.517 0.781 12.466 0.719 12.422 Z" />
		<path class="gold" d="M 0.702 12.419 C 0.547 12.5 0.336 12.683 0.339 12.987 L 0.507 13.116 L 0.549 13.096 C 0.511 13.011 0.608 12.865 0.834 12.668 C 0.8373 12.6343 0.8407 12.6007 0.836 12.563 C 0.808 12.517 0.781 12.466 0.719 12.422 Z" transform="translate(14.36,0) scale(-1, 1)" />		
		
		<path class="secondary-color" d="M -0.065 2.822 C 0.007 2.73 0.112 2.62 0.282 2.605 H 2.066 L 3.885 0.831 H 10.413 L 12.303 2.599 H 14.102 C 14.273 2.68 14.369 2.736 14.487 2.864 V 2.538 C 14.365 2.449 14.286 2.357 14.118 2.347 H 12.394 L 10.541 0.564 H 8.353 C 8.226 0.555 8.116 0.513 8.044 0.435 C 7.942 0.332 7.861 0.214 7.754 0.16 C 7.66 0.104 7.584 0.095 7.483 0.128 C 7.539 0.216 7.557 0.251 7.543 0.422 C 7.507 0.585 7.378 0.668 7.203 0.672 C 7.006 0.659 6.964 0.596 6.881 0.506 C 6.821 0.383 6.821 0.265 6.899 0.148 C 6.828 0.11 6.733 0.104 6.651 0.157 C 6.472 0.256 6.398 0.441 6.224 0.511 C 6.112 0.56 5.993 0.556 5.879 0.56 H 3.81 L 1.987 2.336 H 0.301 C 0.129 2.354 0.021 2.405 -0.091 2.481 Z"/>
		<path class="background-color" d="M 1 0.814 H 13.37 c 0.237 0.351 0.233 0.868 -0.002 1.251 H 1 c -0.227 -0.379 -0.229 -0.947 0 -1.251 Z" />
		<g clip-path="url(#top-clip)">
			<path class="top-feature" d="M 5.191 2.214 C 4.399 1.521 2.825 1.205 0.69 1.647 M 4.536 2.298 C 4.87 1.658 5.443 0.958 6.246 0.532 M 5.272 2.139 C 5.53 1.57 5.996 1.065 6.624 0.604 M 6.68 0.671 C 6.82 0.993 6.967 1.189 7.206 1.541 M 6.35 0.719 C 6.402 1.172 6.791 1.861 6.982 2.139" />
			<path class="top-feature" transform="translate(14.42,0) scale(-1, 1)" d="M 5.191 2.214 C 4.399 1.521 2.825 1.205 0.69 1.647 M 4.536 2.298 C 4.87 1.658 5.443 0.958 6.246 0.532 M 5.272 2.139 C 5.53 1.57 5.996 1.065 6.624 0.604 M 6.68 0.671 C 6.82 0.993 6.967 1.189 7.206 1.541 M 6.35 0.719 C 6.402 1.172 6.791 1.861 6.982 2.139" />
		</g>
		<path class="secondary-color" d="M 4.452 0.823 C 4.471 0.865 4.49 0.888 4.529 0.896 H 5.243 C 5.297 0.896 5.335 0.884 5.384 0.846 L 6.477 -0.087 C 6.841 -0.343 7.489 -0.37 7.914 -0.066 L 8.989 0.849 C 9.021 0.873 9.038 0.895 9.098 0.901 H 9.804 C 9.847 0.897 9.906 0.869 9.952 0.821 H 9.484 C 9.376 0.796 9.238 0.701 9.09 0.58 L 8.358 -0.081 C 7.543 -0.758 6.744 -0.735 5.994 -0.077 L 5.188 0.657 C 5.113 0.722 5.022 0.781 4.932 0.817 H 4.452 Z" />
		
		<path class="gold" d="M 8.73 18.578 C 8.939 18.633 9.067 18.705 9.146 18.865 H 13.019 L 13.015 18.578 Z" />
		<path class="gold" d="M 12.645 18.37 C 12.553 18.374 12.537 18.43 12.502 18.458 C 12.366 18.569 12.223 18.641 12.044 18.705 H 12.888 L 13.17 18.366 Z" />
		<path class="gold" d="M 13.063 18.864 H 12.167 C 12.577 18.693 12.987 18.454 13.258 18.08 V 18.685 Z" />
	</g>
</svg>